<svg width="7" height="10" viewBox="0 0 7 10" fill="none" xmlns="http://www.w3.org/2000/svg">
<path d="M6.18945 5.36133C6.18945 6.63086 5.97266 7.57422 5.53906 8.19141C5.10547 8.80859 4.42773 9.11719 3.50586 9.11719C2.5957 9.11719 1.92188 8.81641 1.48438 8.21484C1.04688 7.60938 0.820312 6.70703 0.804688 5.50781V4.06055C0.804688 2.80664 1.02148 1.875 1.45508 1.26562C1.88867 0.65625 2.56836 0.351562 3.49414 0.351562C4.41211 0.351562 5.08789 0.646484 5.52148 1.23633C5.95508 1.82227 6.17773 2.72852 6.18945 3.95508V5.36133ZM5.10547 3.87891C5.10547 2.96094 4.97656 2.29297 4.71875 1.875C4.46094 1.45312 4.05273 1.24219 3.49414 1.24219C2.93945 1.24219 2.53516 1.45117 2.28125 1.86914C2.02734 2.28711 1.89648 2.92969 1.88867 3.79688V5.53125C1.88867 6.45312 2.02148 7.13477 2.28711 7.57617C2.55664 8.01367 2.96289 8.23242 3.50586 8.23242C4.04102 8.23242 4.4375 8.02539 4.69531 7.61133C4.95703 7.19727 5.09375 6.54492 5.10547 5.6543V3.87891Z" fill="black"/>
</svg>
